<?xml version="1.0" standalone="no"?>
<!DOCTYPE svg PUBLIC "-//W3C//DTD SVG 20010904//EN"
 "http://www.w3.org/TR/2001/REC-SVG-20010904/DTD/svg10.dtd">
<svg version="1.0" xmlns="http://www.w3.org/2000/svg"
 width="96.000000pt" height="96.000000pt" viewBox="0 0 96.000000 96.000000"
 preserveAspectRatio="xMidYMid meet">

<g transform="translate(0.000000,96.000000) scale(0.100000,-0.100000)"
fill="#000000" stroke="none">
<path d="M493 939 c-38 -11 -40 -19 -15 -42 14 -13 21 -14 30 -5 15 15 55 22
47 7 -4 -6 -13 -8 -20 -5 -17 6 -35 -13 -35 -39 0 -31 18 -45 45 -35 13 5 25
6 28 4 12 -12 17 37 6 58 -11 21 -11 22 4 9 21 -17 22 -40 1 -69 -27 -39 -94
-19 -94 28 0 11 -11 30 -24 44 -21 23 -31 26 -97 26 l-74 -1 67 -35 c59 -32
214 -151 206 -159 -2 -2 -19 0 -38 5 -27 6 -30 8 -11 9 24 1 24 2 -10 26 -19
14 -45 29 -57 32 -16 4 -20 8 -12 13 15 9 -44 49 -128 88 -42 19 -61 22 -95
17 -81 -14 -195 -75 -138 -75 11 0 21 -4 21 -9 0 -15 70 -38 201 -66 142 -31
176 -44 225 -87 36 -32 74 -95 74 -123 0 -44 66 26 86 91 16 54 12 91 -17 144
l-19 35 20 -23 c31 -37 43 -94 30 -144 -25 -94 -87 -153 -197 -188 l-58 -19
86 0 c102 -1 161 16 218 65 56 48 78 83 95 145 19 70 20 41 2 -53 -45 -233
-179 -424 -362 -515 l-77 -38 53 -24 54 -24 42 22 c207 110 345 346 343 586
-1 72 -25 176 -29 125 -1 -15 -6 -6 -11 24 -16 96 -131 177 -262 182 -40 2
-87 -1 -104 -7z m-143 -109 c29 -8 26 -9 -20 -3 -30 3 -91 9 -135 14 -77 7
-77 7 20 3 55 -2 116 -8 135 -14z m67 -16 c-3 -3 -12 -4 -19 -1 -8 3 -5 6 6 6
11 1 17 -2 13 -5z m66 -71 c-7 -2 -19 -2 -25 0 -7 3 -2 5 12 5 14 0 19 -2 13
-5z"/>
<path d="M415 680 c-10 -32 -84 -98 -132 -117 -23 -10 -43 -22 -43 -26 0 -13
142 -77 170 -77 33 0 95 18 147 42 l42 20 -15 36 c-20 50 -61 100 -98 123 -40
24 -63 24 -71 -1z"/>
<path d="M331 655 c-47 -9 -55 -15 -73 -49 -11 -21 -17 -41 -13 -44 9 -10 89
36 121 69 15 16 26 30 23 32 -2 1 -28 -2 -58 -8z"/>
<path d="M800 530 c-6 -12 -14 -19 -17 -17 -3 3 -23 -8 -46 -24 -119 -86 -306
-90 -456 -9 -30 17 -57 27 -60 24 -8 -8 -7 -165 2 -196 7 -26 11 -28 70 -30
l62 -2 -58 -3 c-31 -2 -57 -8 -57 -14 0 -31 68 -129 111 -160 l28 -20 63 26
c165 66 282 188 353 368 26 65 29 102 5 57z m-86 -99 c-97 -93 -227 -153 -324
-150 -26 1 -21 3 21 10 129 19 244 80 322 171 23 26 44 45 47 42 3 -3 -27 -36
-66 -73z"/>
</g>
</svg>
