<?xml version="1.0" standalone="no"?>
<!DOCTYPE svg PUBLIC "-//W3C//DTD SVG 20010904//EN"
 "http://www.w3.org/TR/2001/REC-SVG-20010904/DTD/svg10.dtd">
<svg version="1.0" xmlns="http://www.w3.org/2000/svg"
 width="875.000000pt" height="875.000000pt" viewBox="0 0 875.000000 875.000000"
 preserveAspectRatio="xMidYMid meet">

<g transform="translate(0.000000,875.000000) scale(0.100000,-0.100000)"
fill="#000000" stroke="none">
<path d="M4970 8639 c-117 -11 -308 -43 -415 -70 -175 -43 -405 -131 -405
-153 0 -42 157 -231 313 -376 l48 -45 20 24 c13 16 18 33 14 48 -8 35 12 66
39 59 28 -7 72 34 63 58 -9 22 31 48 54 35 25 -13 79 15 79 41 0 26 37 36 60
15 24 -22 76 -12 85 16 8 25 51 25 64 0 15 -27 59 -36 80 -16 30 27 71 12 71
-25 0 -24 46 -43 71 -30 29 16 62 -5 56 -36 -6 -33 32 -67 66 -59 31 8 57 -26
37 -50 -18 -21 14 -75 45 -75 30 0 43 -34 22 -58 -22 -24 -10 -71 19 -82 30
-12 33 -55 4 -70 -26 -14 -27 -63 -2 -88 10 -10 67 -35 128 -56 385 -133 644
-385 764 -744 60 -180 75 -285 75 -522 0 -185 -3 -231 -23 -329 -80 -395 -284
-772 -577 -1067 -204 -205 -388 -335 -670 -474 -349 -172 -699 -293 -1075
-372 l-65 -14 125 -17 c560 -76 1180 -54 1635 58 143 35 351 100 371 116 6 5
34 16 62 24 28 9 58 23 67 31 9 9 18 14 22 11 8 -9 233 111 261 138 13 13 39
29 58 35 19 7 38 19 43 29 5 9 35 30 67 46 31 16 80 53 109 82 28 29 57 53 65
53 7 0 67 55 134 123 427 429 681 947 742 1512 2 22 8 76 14 119 28 232 18
782 -16 847 -7 15 -48 73 -90 130 -214 289 -477 541 -755 725 -146 96 -346
203 -367 196 -6 -2 -12 1 -12 6 0 10 -26 23 -44 21 -5 0 -12 3 -15 9 -17 26
-348 135 -448 147 -29 4 -53 10 -53 15 0 9 -220 47 -350 60 -115 12 -538 11
-670 -1z"/>
<path d="M2655 8370 c3 -5 15 -10 25 -10 10 0 22 -4 25 -10 3 -5 16 -10 27
-10 12 0 29 -6 37 -13 9 -7 45 -26 81 -41 123 -53 455 -223 599 -305 491 -283
884 -579 1355 -1019 103 -97 194 -180 201 -184 7 -5 36 -38 65 -74 28 -36 66
-74 84 -85 34 -20 64 -64 53 -76 -9 -8 -82 14 -99 30 -16 16 -44 27 -83 34
-16 2 -50 14 -75 24 -25 11 -67 23 -95 25 -27 3 -78 12 -113 20 -34 8 -66 13
-70 10 -5 -3 -62 1 -128 9 -124 14 -479 14 -628 0 l-79 -8 74 -19 c65 -17 123
-36 359 -120 30 -11 62 -25 70 -32 8 -7 44 -27 80 -46 36 -18 82 -44 102 -57
20 -12 42 -24 49 -25 6 -2 22 -12 34 -23 13 -12 36 -27 51 -35 15 -8 37 -24
49 -35 12 -11 58 -51 103 -90 261 -223 506 -601 627 -969 38 -115 78 -291 87
-379 3 -28 4 -28 99 52 361 301 621 741 701 1186 28 155 30 404 5 545 -81 445
-305 754 -686 945 -139 70 -164 77 -201 59 -33 -17 -49 -56 -30 -78 17 -22 -4
-56 -35 -56 -29 0 -59 -40 -51 -68 9 -27 -26 -57 -50 -44 -23 13 -76 -21 -68
-43 3 -8 -6 -21 -21 -31 -24 -15 -28 -16 -42 -1 -19 19 -69 5 -78 -23 -9 -28
-47 -34 -67 -10 -20 25 -60 26 -82 1 -19 -21 -66 -17 -66 6 0 8 -15 20 -32 28
-28 11 -35 12 -47 0 -20 -19 -61 1 -61 30 0 25 -42 52 -72 47 -27 -5 -50 18
-44 42 6 27 -26 66 -53 66 -26 0 -50 45 -34 61 16 16 -3 66 -27 72 -26 7 -38
57 -17 69 19 10 12 68 -10 81 -20 12 -16 58 6 64 24 6 34 53 18 87 -7 15 -34
40 -62 56 -105 61 -236 194 -297 299 -35 61 -59 70 -153 58 -99 -12 -493 -15
-715 -4 -91 4 -246 9 -345 12 -99 3 -197 8 -218 10 -25 4 -36 2 -32 -5z"/>
<path d="M2275 8364 c-16 -2 -86 -9 -155 -15 -591 -52 -1133 -256 -1435 -541
-91 -86 -160 -174 -129 -164 30 9 543 64 704 76 323 22 813 10 1180 -31 461
-51 1118 -179 1675 -328 82 -22 151 -39 152 -37 4 4 -277 210 -407 299 -444
301 -940 561 -1358 713 -90 33 -133 38 -227 28z"/>
<path d="M4849 8236 c-70 -20 -147 -65 -201 -119 -71 -71 -81 -100 -12 -38 33
31 91 70 133 90 64 30 88 36 161 39 143 7 242 -31 353 -136 31 -30 57 -50 57
-45 0 19 -124 140 -170 166 -92 53 -222 70 -321 43z"/>
<path d="M4851 8184 c-162 -43 -273 -166 -303 -335 -30 -171 65 -350 229 -431
65 -32 73 -33 183 -33 107 0 119 2 175 29 81 40 158 119 198 203 29 63 32 76
32 168 -1 130 -24 192 -105 279 -110 118 -258 161 -409 120z m243 -41 c39 -20
86 -55 86 -63 0 -4 -26 6 -58 22 -108 53 -258 47 -362 -15 l-35 -20 24 26 c71
78 242 103 345 50z m176 -548 c-92 -133 -228 -208 -349 -190 -100 14 -206 85
-272 182 -42 60 -36 62 21 9 142 -132 348 -153 509 -51 23 14 59 43 79 65 20
21 39 37 40 35 2 -2 -10 -24 -28 -50z"/>
<path d="M1235 7639 c-109 -7 -386 -38 -393 -44 -1 -1 37 -30 85 -64 104 -74
348 -196 490 -245 298 -102 942 -254 1943 -457 l345 -70 170 15 c212 19 581
28 649 16 28 -5 98 -12 156 -15 92 -4 156 -15 238 -41 18 -5 10 7 -29 47 -29
30 -56 54 -61 54 -4 0 -25 18 -45 41 -81 87 -296 231 -478 318 -285 138 -598
215 -1270 311 -137 20 -380 56 -540 80 -231 35 -338 46 -525 54 -262 12 -554
12 -735 0z"/>
<path d="M7896 6970 c6 -184 -18 -604 -40 -690 -3 -14 -13 -61 -22 -105 -8
-44 -24 -114 -34 -155 -10 -41 -21 -102 -25 -135 -26 -240 -123 -699 -212
-1010 -14 -49 -27 -100 -29 -113 -1 -13 -6 -28 -11 -35 -9 -11 -16 -37 -53
-177 -7 -25 -16 -47 -20 -50 -10 -7 -55 -142 -52 -157 2 -7 -2 -13 -9 -13 -6
0 -9 -7 -5 -15 3 -8 1 -15 -4 -15 -6 0 -10 -7 -10 -15 0 -8 -4 -23 -10 -33 -5
-9 -32 -74 -60 -144 -365 -930 -933 -1782 -1593 -2389 -432 -398 -955 -739
-1452 -949 -55 -23 -119 -53 -142 -66 -22 -13 -65 -30 -95 -38 -29 -8 -68 -22
-87 -32 -19 -9 -44 -18 -55 -19 -12 -2 -61 -15 -109 -30 l-89 -27 37 -25 c20
-14 42 -26 48 -27 22 -4 62 -29 75 -48 7 -10 20 -18 29 -18 8 0 29 -12 46 -26
46 -39 376 -197 497 -239 118 -41 251 -75 292 -75 33 0 212 84 388 182 681
381 1268 857 1735 1408 321 378 576 787 780 1250 328 742 516 1431 591 2165
28 263 25 720 -5 974 -12 106 -29 211 -37 233 -8 22 -14 54 -14 71 0 34 -39
207 -50 222 -10 14 -28 73 -35 115 -9 53 -14 69 -47 137 -16 34 -31 74 -34 90
-3 15 -23 64 -44 108 l-39 80 5 -165z"/>
<path d="M3830 6392 c0 -102 -64 -271 -155 -407 -94 -142 -380 -422 -585 -575
-231 -171 -621 -363 -907 -447 -35 -10 -65 -24 -68 -30 -8 -23 338 -254 473
-314 35 -16 70 -35 78 -44 9 -8 22 -15 30 -15 16 0 156 -68 164 -80 8 -13 271
-121 280 -115 5 3 14 -1 22 -8 13 -12 82 -38 103 -39 6 0 15 -4 22 -10 7 -5
16 -7 22 -4 5 3 11 2 13 -3 1 -6 26 -15 53 -22 28 -7 64 -18 81 -25 17 -8 87
-28 155 -45 107 -27 135 -30 204 -25 264 20 699 139 1055 289 169 71 404 189
503 253 l69 45 -7 41 c-28 163 -175 479 -337 722 -266 399 -506 614 -855 765
-87 38 -311 112 -380 126 -33 7 -33 6 -33 -33z"/>
<path d="M3570 6134 c-171 -100 -534 -196 -853 -225 -65 -6 -127 -9 -138 -6
-37 10 -232 -353 -352 -658 -64 -161 -74 -195 -58 -195 6 0 73 23 148 51 269
99 610 283 768 412 228 187 421 408 535 610 17 31 30 57 28 56 -1 -1 -37 -21
-78 -45z"/>
<path d="M7526 5235 c-31 -58 -87 -157 -126 -221 -38 -64 -70 -121 -70 -127 0
-7 -25 -43 -55 -80 -30 -38 -53 -72 -50 -77 3 -5 -9 -24 -27 -42 -43 -43 -108
-132 -108 -148 0 -7 -15 -26 -33 -44 -35 -33 -107 -121 -107 -130 0 -3 -12
-18 -26 -33 -14 -15 -31 -35 -38 -43 -561 -665 -1182 -1125 -1906 -1412 -69
-27 -143 -58 -166 -69 -22 -10 -49 -19 -60 -19 -23 0 -196 -54 -239 -75 -17
-8 -55 -17 -85 -20 -30 -4 -57 -10 -60 -15 -3 -5 -35 -14 -70 -19 -36 -6 -131
-24 -212 -40 -198 -41 -521 -87 -753 -106 -238 -21 -873 -30 -1060 -17 -77 6
-144 7 -148 3 -9 -9 61 -214 75 -219 4 -2 6 -7 3 -12 -7 -11 63 -171 144 -326
82 -158 224 -375 342 -524 151 -191 467 -494 683 -654 l38 -29 122 38 c902
278 1713 741 2295 1310 425 416 818 961 1137 1580 127 247 281 590 263 590 -2
0 4 11 14 25 9 13 17 34 17 46 0 12 6 27 13 33 13 10 26 45 58 159 7 23 15 42
19 42 4 0 11 20 14 44 4 25 18 66 32 93 34 66 203 643 189 643 -2 0 -28 -47
-59 -105z"/>
<path d="M7263 4978 c-22 -29 -75 -90 -117 -135 -42 -44 -76 -85 -76 -90 0
-11 -90 -87 -112 -96 -10 -3 -18 -13 -18 -20 0 -14 -174 -157 -191 -157 -12 0
-123 -80 -127 -92 -2 -4 -9 -8 -16 -8 -6 0 -19 -9 -29 -20 -9 -11 -24 -20 -32
-20 -8 0 -15 -4 -15 -10 0 -5 -7 -10 -15 -10 -8 0 -15 -4 -15 -10 0 -5 -9 -10
-20 -10 -10 0 -24 -8 -29 -17 -6 -10 -11 -15 -11 -11 0 4 -60 -24 -132 -62
-347 -181 -724 -295 -1178 -357 -210 -28 -782 -26 -1014 5 -446 59 -817 161
-1201 330 -82 37 -153 66 -157 64 -5 -1 -8 2 -8 7 0 5 -15 14 -32 22 -18 7
-45 21 -60 31 -14 10 -33 18 -41 18 -9 0 -17 4 -19 8 -1 5 -43 32 -93 61 -93
55 -305 196 -386 256 l-47 35 -22 -82 c-32 -120 -77 -345 -95 -483 -22 -164
-30 -526 -16 -700 20 -236 93 -656 120 -689 5 -6 12 -29 16 -51 14 -91 4 -83
118 -89 252 -14 783 -17 967 -6 365 21 720 70 1060 145 91 20 176 43 190 50
27 15 199 65 242 70 15 2 90 26 167 54 648 230 1203 595 1727 1135 90 92 164
171 164 175 0 3 27 35 60 70 33 35 60 70 60 78 0 7 6 16 14 19 19 7 116 131
138 175 10 21 33 53 52 71 18 18 41 50 51 70 9 21 30 50 45 65 22 22 135 185
174 251 16 26 -1 10 -41 -40z"/>
</g>
</svg>
