<?xml version="1.0" standalone="no"?>
<!DOCTYPE svg PUBLIC "-//W3C//DTD SVG 20010904//EN"
 "http://www.w3.org/TR/2001/REC-SVG-20010904/DTD/svg10.dtd">
<svg version="1.0" xmlns="http://www.w3.org/2000/svg"
 width="128.000000pt" height="128.000000pt" viewBox="0 0 128.000000 128.000000"
 preserveAspectRatio="xMidYMid meet">

<g transform="translate(0.000000,128.000000) scale(0.100000,-0.100000)"
fill="#000000" stroke="none">
<path d="M555 1140 c-38 -8 -94 -37 -121 -61 -22 -21 -74 -25 -321 -28 l-113
-1 0 -95 c0 -88 1 -95 20 -95 16 0 20 -6 19 -32 0 -30 -1 -31 -9 -10 -23 57
-30 16 -30 -185 0 -178 2 -209 17 -225 15 -17 15 -19 0 -36 -15 -16 -17 -45
-17 -195 l0 -177 349 0 349 0 6 22 c3 13 6 35 6 49 0 17 9 33 28 45 46 32 181
171 191 197 8 19 19 26 58 31 26 4 57 8 68 8 24 1 164 -19 200 -28 23 -6 25
-4 25 30 l0 36 -57 0 c-62 0 -95 12 -78 29 13 12 57 17 71 8 6 -3 23 -11 38
-16 l26 -11 0 336 0 336 -223 -4 -222 -3 -75 37 c-77 38 -145 50 -205 38z
m230 -124 c52 -9 95 -43 125 -102 14 -27 27 -51 30 -54 3 -3 14 -24 25 -46 11
-23 25 -40 32 -37 30 12 50 -96 28 -157 -8 -23 -15 -55 -15 -70 0 -15 -9 -35
-19 -44 -11 -10 -17 -24 -15 -31 7 -17 -14 -95 -26 -95 -5 0 -7 -8 -3 -17 3
-10 3 -15 -2 -11 -4 4 -14 3 -21 -3 -9 -7 -14 -5 -19 10 -4 13 -13 18 -31 16
-29 -3 -40 27 -25 68 6 16 7 36 2 50 -13 32 -71 84 -103 92 -25 6 -28 4 -28
-18 0 -13 7 -30 15 -37 22 -18 7 -32 -26 -25 -19 4 -38 1 -52 -8 -19 -12 -27
-13 -48 -2 -23 13 -24 17 -24 128 0 109 -1 117 -25 142 -13 14 -43 34 -66 44
-41 18 -65 41 -45 41 6 0 11 14 11 30 0 31 0 31 -67 34 -18 0 -32 6 -31 11 1
11 77 42 122 51 16 2 38 11 50 19 11 8 33 15 48 15 16 0 28 3 28 8 0 9 117 7
175 -2z m-485 -153 c0 -7 -17 -13 -42 -15 l-43 -3 0 -57 c0 -31 -3 -60 -7 -64
-5 -4 -8 27 -8 69 l0 76 33 3 c53 6 67 4 67 -9z m-252 -114 c-3 -20 -5 -19 -9
9 -3 20 -2 29 4 23 5 -5 7 -19 5 -32z m238 -105 c17 5 24 2 24 -8 0 -9 -6 -13
-14 -10 -17 6 -46 -22 -46 -44 0 -27 13 -39 48 -47 32 -7 58 -37 47 -55 -9
-14 -109 -12 -123 2 -8 8 -12 48 -12 116 l0 104 26 -32 c21 -24 32 -30 50 -26z
m200 -49 c6 -6 10 -18 8 -28 -4 -32 -26 -48 -61 -45 -20 1 -41 -4 -53 -15 -19
-16 -20 -16 -20 14 0 16 7 43 15 59 13 25 20 28 57 27 24 -1 48 -7 54 -12z
m-146 -22 c0 -21 -3 -24 -9 -14 -5 8 -7 20 -4 28 8 21 13 15 13 -14z m-283
-87 c-4 -9 -13 -13 -22 -10 -14 6 -13 8 2 19 21 16 28 12 20 -9z m1068 -47
c11 -17 -1 -21 -15 -4 -8 9 -8 15 -2 15 6 0 14 -5 17 -11z m-399 -14 c5 -12
15 -14 40 -9 33 6 34 5 34 -26 0 -40 -27 -98 -52 -111 -35 -19 -62 -7 -64 26
-2 41 -2 42 -20 59 -12 12 -12 16 -2 16 10 0 9 3 -2 10 -11 7 -9 11 13 19 16
6 34 11 40 11 7 0 6 4 -3 10 -10 7 -11 10 -2 10 7 0 15 -7 18 -15z m-86 -35
c0 -5 -7 -7 -15 -4 -8 4 -15 8 -15 10 0 2 7 4 15 4 8 0 15 -4 15 -10z m-180
-230 c0 -12 7 -20 17 -20 18 0 12 -10 -9 -14 -7 -1 -18 -4 -23 -8 -7 -4 -9 6
-7 28 4 36 22 48 22 14z m-300 -120 c-19 -13 -30 -13 -30 0 0 6 10 10 23 10
18 0 19 -2 7 -10z"/>
<path d="M696 809 c-27 -4 -56 -14 -64 -22 -16 -17 -9 -37 13 -37 9 0 13 -11
13 -29 -1 -39 7 -49 53 -62 30 -10 42 -10 51 -1 9 9 9 12 -2 12 -10 0 -9 4 3
18 10 10 14 22 10 27 -5 4 2 4 15 1 13 -4 22 -3 22 3 0 5 -16 13 -35 17 -19 3
-35 10 -35 15 0 13 51 11 70 -3 9 -7 5 -3 -8 10 -22 21 -18 27 16 23 15 -2 16
15 0 25 -17 11 -68 12 -122 3z"/>
<path d="M1250 270 c0 -6 7 -10 15 -10 8 0 15 2 15 4 0 2 -7 6 -15 10 -8 3
-15 1 -15 -4z"/>
<path d="M1011 147 c2 -1 12 -9 22 -16 14 -12 17 -11 17 3 0 10 -8 16 -22 16
-12 0 -19 -1 -17 -3z"/>
<path d="M1087 111 c3 -10 -2 -32 -11 -47 l-15 -29 -2 40 c-1 22 -3 32 -6 23
-2 -10 -8 -18 -11 -18 -4 0 -7 -18 -8 -39 l0 -39 123 -1 c103 -1 123 1 123 14
0 8 -9 15 -19 15 -11 0 -22 8 -26 19 -4 13 -14 18 -35 17 -17 -1 -30 -5 -30
-9 0 -5 -5 -5 -10 -2 -6 4 -7 11 -4 17 4 7 2 8 -5 4 -6 -4 -9 -16 -6 -27 5
-14 3 -17 -9 -13 -16 6 -20 17 -17 41 2 17 -17 53 -28 53 -5 0 -7 -9 -4 -19z"/>
<path d="M985 38 c-11 -11 -29 -24 -40 -28 -15 -7 -11 -9 20 -9 36 -1 42 2 52
29 14 36 -1 40 -32 8z"/>
</g>
</svg>
